<svg xmlns="http://www.w3.org/2000/svg" viewBox="0 0 282.99969 282.99969"><defs><style>.cls-1{fill:none;}.cls-2{fill:#1866ff;}</style></defs><g id="图层_2" data-name="图层 2"><g id="图层_1-2" data-name="图层 1"><rect class="cls-1" width="282.99969" height="282.99969"/><path class="cls-2" d="M164.47034,141.49976,251.691,54.2793a4.84055,4.84055,0,0,0,.00006-6.83741l-16.1333-16.1333a4.8347,4.8347,0,0,0-6.83722,0L141.49988,118.5293,54.27917,31.30859a4.83469,4.83469,0,0,0-6.83721,0L31.30865,47.44189a4.84062,4.84062,0,0,0,0,6.83741l87.22071,87.22046L31.30865,228.7207a4.84008,4.84008,0,0,0-.00006,6.83692L47.442,251.69092a4.83491,4.83491,0,0,0,6.83715.00024l87.22077-87.22095,87.2207,87.22071a4.83492,4.83492,0,0,0,6.83716.00024L251.691,235.55762a4.84,4.84,0,0,0,.00006-6.83692Z"/></g></g></svg>
