<svg xmlns="http://www.w3.org/2000/svg" viewBox="0 0 282.99969 282.99969"><defs><style>.cls-1{fill:none;}.cls-2{fill:#1866ff;}</style></defs><g id="图层_2" data-name="图层 2"><g id="图层_1-2" data-name="图层 1"><rect class="cls-1" width="282.99969" height="282.99969"/><path class="cls-2" d="M252.16534,115H229.83466A4.84018,4.84018,0,0,0,225,119.83447v80.59278L123.86823,99.29541l51.70916-51.70923a4.8403,4.8403,0,0,0,.00012-6.83716L159.54224,24.71387a4.83475,4.83475,0,0,0-6.83728,0L100.99585,76.4231,49.31122,24.73828a4.83463,4.83463,0,0,0-6.83716,0L26.4389,40.77344a4.84055,4.84055,0,0,0-.00006,6.8374l51.6847,51.68457L26.41431,151.00464a4.83454,4.83454,0,0,0-.00006,6.83716L42.44952,173.877a4.83475,4.83475,0,0,0,6.83728,0l51.70905-51.70923L202.82806,224h-81.9934A4.84018,4.84018,0,0,0,116,228.83447v22.33106A4.84018,4.84018,0,0,0,120.83466,256H252.16534A4.84018,4.84018,0,0,0,257,251.16553V119.83447A4.84018,4.84018,0,0,0,252.16534,115Z"/></g></g></svg>
