<svg xmlns="http://www.w3.org/2000/svg" viewBox="0 0 282.99969 282.99969"><defs><style>.cls-1{fill:none;}.cls-2{fill:#1866ff;}</style></defs><g id="图层_2" data-name="图层 2"><g id="图层_1-2" data-name="图层 1"><rect class="cls-1" width="282.99969" height="282.99969"/><path class="cls-2" d="M207.13574,265.37061,186.2,168.51514a4.83207,4.83207,0,0,0-5.74695-3.7041L158.627,169.5293a4.84,4.84,0,0,0-3.704,5.74682l5.79151,26.79517-37.7096-37.71L191.04529,96.3208a4.84011,4.84011,0,0,0,.00012-6.83691L114.766,13.20459a4.83417,4.83417,0,0,0-6.83728,0l-15.78992,15.79a4.83978,4.83978,0,0,0,0,6.83691l57.07068,57.0708-68.0404,68.04053a4.8399,4.8399,0,0,0-.00012,6.83692l56.9143,56.915-26.78894-5.79a4.83066,4.83066,0,0,0-5.74682,3.70385l-4.71814,21.82593a4.83468,4.83468,0,0,0,3.7041,5.74707l96.85534,20.93579a4.90888,4.90888,0,0,0,1.0326.11109,4.83692,4.83692,0,0,0,4.71435-5.85791Z"/></g></g></svg>
