<svg xmlns="http://www.w3.org/2000/svg" viewBox="0 0 282.99969 282.99969"><defs><style>.cls-1{fill:none;}.cls-2{fill:#1866ff;}</style></defs><g id="图层_2" data-name="图层 2"><g id="图层_1-2" data-name="图层 1"><rect class="cls-1" width="282.99969" height="282.99969"/><path class="cls-2" d="M233.63672,265.37036l-20.93555-96.85522a4.8322,4.8322,0,0,0-5.74707-3.7041l-21.82593,4.71826a4.84025,4.84025,0,0,0-3.7041,5.74658l5.79126,26.79565-36.98022-36.98071V16.94873a4.84006,4.84006,0,0,0-4.83448-4.83447H64.08643a4.84016,4.84016,0,0,0-4.8346,4.83447V39.27979a4.84017,4.84017,0,0,0,4.8346,4.83447h54.14868V156H75.79053a4.84017,4.84017,0,0,0-4.8346,4.83447v22.33106A4.84017,4.84017,0,0,0,75.79053,188h52.09961l36.69433,36.69482-26.78882-5.79a4.83094,4.83094,0,0,0-5.74707,3.70385l-4.718,21.82593a4.835,4.835,0,0,0,3.70385,5.74707l96.85547,20.93579a4.89334,4.89334,0,0,0,1.03272.11109,4.8365,4.8365,0,0,0,4.71411-5.85816Z"/></g></g></svg>
