<svg xmlns="http://www.w3.org/2000/svg" viewBox="0 0 282.99969 282.99969"><defs><style>.cls-1{fill:none;}.cls-2{fill:#1866ff;}</style></defs><g id="图层_2" data-name="图层 2"><g id="图层_1-2" data-name="图层 1"><rect class="cls-1" width="282.99969" height="282.99969"/><path class="cls-2" d="M190.14185,127.03125l-.05811-.0332-.06006-.0293-46.94287-22.8374c-14.0625-6.605-23.22217-12.40235-27.24976-17.24243-3.89648-4.66138-5.874-11.47144-5.88085-20.24488.80249-17.51709,11.78466-26.83838,33.57006-28.4917,27.98877.85059,48.45923,19.79493,60.84473,56.3086a4.87191,4.87191,0,0,0,4.60791,3.31933H212.926a4.87194,4.87194,0,0,0,4.86645-4.86621V28.86646A4.872,4.872,0,0,0,212.926,24h-4.95728a4.82394,4.82394,0,0,0-4.51978,3.07715c-1.29589,3.45361-8.69116,5.51709-15.092,5.51709a18.455,18.455,0,0,1-6.11718-.854C167.66162,26.59961,155.05859,24,144.74292,24c-46.72412.87207-71.71411,23.27441-74.31274,66.58545-.88111,13.98828,3.53491,27.05151,13.12548,38.8208,9.44312,11.58789,24.17652,22.218,43.79468,31.59692l21.53247,11.40015.11939.06323.127.04663c24.31348,8.92749,36.25244,21.48658,35.48584,37.32862-1.6377,21.83349-14.27515,32.84033-38.63574,33.64892-32.09424-.01611-53.87476-21.8247-64.73242-64.8208a4.8699,4.8699,0,0,0-4.71851-3.6914H72.75439a4.87158,4.87158,0,0,0-4.86621,4.86621v71.6604a4.87178,4.87178,0,0,0,4.86621,4.86645h3.8711a4.869,4.869,0,0,0,4.30469-2.61181c1.262-2.384,8.38012-4.32373,15.86743-4.32349a24.85269,24.85269,0,0,1,5.57007.52637c15.3413,4.25244,29.59912,6.40893,42.37524,6.40893h.03418l.03418-.001c50.84839-1.738,78.38867-24.55372,81.85571-67.81324l.00635-.07983v-.08008C226.67334,161.54346,214.38232,140.897,190.14185,127.03125Z"/></g></g></svg>
