<svg xmlns="http://www.w3.org/2000/svg" viewBox="0 0 282.99969 282.99969"><defs><style>.cls-1{fill:none;}.cls-2{fill:#ff3e14;}</style></defs><g id="图层_2" data-name="图层 2"><g id="图层_1-2" data-name="图层 1"><rect class="cls-1" width="282.99969" height="282.99969"/><path class="cls-2" d="M241.82129,41.43555a94.41855,94.41855,0,0,0-160.13867,64.3916A94.54217,94.54217,0,0,0,100.543,165.60352L46.4707,219.67676V173.19629a3.83975,3.83975,0,0,0-3.835-3.835H20.30566a3.83975,3.83975,0,0,0-3.835,3.835v97.69434H114.165a3.83975,3.83975,0,0,0,3.835-3.835V244.72559a3.83975,3.83975,0,0,0-3.835-3.835H67.68262l54.44531-54.44629A93.68753,93.68753,0,0,0,178.66406,203.334c50.84473-1.40918,91.9834-43.96289,91.70508-94.85937A93.66713,93.66713,0,0,0,241.82129,41.43555ZM240.37012,109A64.37012,64.37012,0,1,1,176,44.62988,64.44259,64.44259,0,0,1,240.37012,109Z"/></g></g></svg>
