<svg xmlns="http://www.w3.org/2000/svg" viewBox="0 0 282.99969 282.99969"><defs><style>.cls-1{fill:none;}.cls-2{fill:#ff3e14;}</style></defs><g id="图层_2" data-name="图层 2"><g id="图层_1-2" data-name="图层 1"><rect class="cls-1" width="282.99969" height="282.99969"/><path class="cls-2" d="M239.20508,226.50293,94.91211,142.5l144.293-84.00293a3.8346,3.8346,0,0,0,1.38476-5.24316L229.35449,33.95605a3.83316,3.83316,0,0,0-5.24219-1.38476L40.97754,139.18555a3.83558,3.83558,0,0,0,0,6.6289L224.1123,252.42871a3.80828,3.80828,0,0,0,1.92188.52246,3.86961,3.86961,0,0,0,.98633-.1289,3.80853,3.80853,0,0,0,2.334-1.77832l11.23535-19.29786a3.8346,3.8346,0,0,0-1.38476-5.24316Z"/></g></g></svg>
