<svg xmlns="http://www.w3.org/2000/svg" viewBox="0 0 282.99969 282.99969"><defs><style>.cls-1{fill:none;}.cls-2{fill:#ff3e14;}</style></defs><g id="图层_2" data-name="图层 2"><g id="图层_1-2" data-name="图层 1"><rect class="cls-1" width="282.99969" height="282.99969"/><path class="cls-2" d="M206.24707,164.36133a3.80632,3.80632,0,0,0-1.124-2.71094L136.376,92.90234,194.15332,35.125a3.83352,3.83352,0,0,0,0-5.42383l-15.79-15.78906a3.92543,3.92543,0,0,0-5.42285,0L96.66113,90.19043a3.84178,3.84178,0,0,0,0,5.42383l68.748,68.74707-40.81934,40.81933,6.50977-30.11621a3.83823,3.83823,0,0,0-2.93848-4.55761L106.335,165.78809a3.83365,3.83365,0,0,0-4.55762,2.93847L80.84082,265.582a3.83654,3.83654,0,0,0,3.74316,4.64551,3.86512,3.86512,0,0,0,.81543-.08691l96.85547-20.93653a3.83421,3.83421,0,0,0,2.93848-4.55762l-4.71875-21.82617a3.83451,3.83451,0,0,0-4.55762-2.93847l-30.10937,6.50781,59.31543-59.31641A3.81025,3.81025,0,0,0,206.24707,164.36133Z"/></g></g></svg>
