<svg xmlns="http://www.w3.org/2000/svg" viewBox="0 0 282.99969 282.99969"><defs><style>.cls-1{fill:none;}.cls-2{fill:#ff3e14;}</style></defs><g id="图层_2" data-name="图层 2"><g id="图层_1-2" data-name="图层 1"><rect class="cls-1" width="282.99969" height="282.99969"/><path class="cls-2" d="M228.91309,13.11426H147.59863a3.83891,3.83891,0,0,0-3.834,3.835V165.50488l-39.67578,39.67578,6.50976-30.11621a3.83823,3.83823,0,0,0-2.93847-4.55761L85.834,165.78809a3.83364,3.83364,0,0,0-4.55761,2.93847L60.33984,265.582a3.83654,3.83654,0,0,0,3.74317,4.64551,3.86519,3.86519,0,0,0,.81543-.08691l96.85547-20.93653a3.83388,3.83388,0,0,0,2.9375-4.55762l-4.71778-21.82714a3.84857,3.84857,0,0,0-4.55761-2.9375l-30.11036,6.50781L164.69531,187H217.209a3.83975,3.83975,0,0,0,3.835-3.835V160.835A3.83975,3.83975,0,0,0,217.209,157H173.76465V43.11426h55.14844a3.83976,3.83976,0,0,0,3.835-3.835V16.94922A3.83975,3.83975,0,0,0,228.91309,13.11426Z"/></g></g></svg>
