<svg xmlns="http://www.w3.org/2000/svg" viewBox="0 0 282.99969 282.99969"><defs><style>.cls-1{fill:none;}.cls-2{fill:#ff3e14;}</style></defs><g id="图层_2" data-name="图层 2"><g id="图层_1-2" data-name="图层 1"><rect class="cls-1" width="282.99969" height="282.99969"/><path class="cls-2" d="M189.58594,127.86816l-46.95508-22.84375c-14.1709-6.65625-23.44629-12.543-27.56934-17.498-4.05566-4.84961-6.11132-11.89063-6.1123-20.88184.81348-18.15723,12.11523-27.80469,34.54785-29.49316,28.47656.84179,49.27441,20.01465,61.81445,56.98828a3.87329,3.87329,0,0,0,3.66114,2.64062h3.95312a3.8708,3.8708,0,0,0,3.86719-3.86621V28.86621A3.8708,3.8708,0,0,0,212.92578,25h-4.957a3.82057,3.82057,0,0,0-3.584,2.42871c-.92676,2.4707-4.5586,4.54785-9.71485,5.55567-4.70605.91894-9.84179.79589-12.7998-.31446C167.43652,27.58105,154.94531,25,144.72461,25c-46.07422.86035-70.73438,22.94629-73.2959,65.64258-1.72558,27.39648,17.24609,50.77246,56.35352,69.458l21.56836,11.41894.123.05469c24.78516,9.10058,36.94434,22.001,36.14063,38.31738-1.67578,22.46094-14.64063,33.77832-39.60254,34.59863-32.62988,0-54.74609-22.0625-65.73438-65.57617a3.87079,3.87079,0,0,0-3.749-2.93554H72.75488a3.87079,3.87079,0,0,0-3.86718,3.86621v71.66015a3.87079,3.87079,0,0,0,3.86718,3.86621H76.626a3.86893,3.86893,0,0,0,3.41992-2.0791c2.25293-4.25488,16.31055-5.85547,22.5625-4.2998,15.26367,4.23242,29.4375,6.37793,42.16406,6.37793h.00488c50.25684-1.7168,77.47364-24.22266,80.89649-66.97266C225.67383,161.92773,213.55176,141.57324,189.58594,127.86816Z"/></g></g></svg>
